<svg width="22" height="22" viewBox="0 0 22 22" fill="none" xmlns="http://www.w3.org/2000/svg">
<path d="M0.698238 3.12721C0.698238 2.52346 0.923572 1.93571 1.33282 1.48705C1.79029 0.9854 2.44225 0.697753 3.12102 0.697753L6.37376 0.697753C7.60819 0.697753 8.64297 1.61898 8.78056 2.84057C8.86163 3.5595 9.00967 4.27352 9.22053 4.96312C9.48451 5.82618 9.2554 6.75585 8.62245 7.38892L7.30456 8.70694C8.68552 11.2311 10.7903 13.3359 13.3139 14.7167L14.6319 13.3985C15.265 12.7656 16.1947 12.5365 17.0579 12.8006C17.7475 13.0115 18.4615 13.1595 19.1803 13.2406C20.402 13.378 21.3232 14.4128 21.3232 15.6472L21.3232 18.8998C21.3232 19.5787 21.0356 20.2307 20.5339 20.6882C20.0304 21.1477 19.3515 21.3751 18.6716 21.3126C16.3377 21.0978 14.0842 20.4792 11.9736 19.4739C9.92171 18.4966 8.06364 17.1834 6.45068 15.5704C4.83784 13.9576 3.52436 12.0994 2.54724 10.0475C1.54205 7.93677 0.923321 5.6833 0.708435 3.3494C0.701509 3.27525 0.698238 3.20123 0.698238 3.12721ZM7.71671 5.68028C7.71671 5.59871 7.7045 5.51575 7.6797 5.43456C7.43976 4.65029 7.27145 3.83833 7.1793 3.02096C7.13361 2.61523 6.7873 2.30908 6.37376 2.30908L3.12102 2.30908C2.89065 2.30908 2.67841 2.40287 2.52332 2.57306C2.36609 2.74515 2.29144 2.96847 2.31309 3.20161C3.11913 11.9598 10.0613 18.9019 18.8194 19.708C19.0525 19.7296 19.2758 19.6548 19.4481 19.4978C19.6181 19.3425 19.7119 19.1302 19.7119 18.8998L19.7119 15.6472C19.7119 15.2337 19.4059 14.8874 19 14.8416C18.1827 14.7495 17.3707 14.5812 16.5864 14.3414C16.2944 14.252 15.9821 14.3272 15.7713 14.5379L13.6254 16.6839L13.1066 16.4258C9.87249 14.8168 7.20498 12.1489 5.59554 8.91414L5.33723 8.39537L7.48319 6.24954C7.63513 6.09759 7.71671 5.89265 7.71671 5.68028Z" fill="black"/>
</svg>
