<svg width="22" height="18" viewBox="0 0 22 18" fill="none" xmlns="http://www.w3.org/2000/svg">
<path d="M19.2196 0.942383H2.78037C1.2473 0.942383 0 2.18969 0 3.72275V14.2769C0 15.81 1.2473 17.0573 2.78037 17.0573H19.2196C20.7527 17.0573 22 15.81 22 14.2769V3.72275C22 2.18969 20.7527 0.942383 19.2196 0.942383ZM18.7853 2.73586L11 8.74987L3.21475 2.73586H18.7853ZM19.2196 15.2639H2.78037C2.23623 15.2639 1.79348 14.8212 1.79348 14.277V3.90425L10.4518 10.5927C10.6132 10.7174 10.8067 10.7797 11 10.7797C11.1933 10.7797 11.3868 10.7174 11.5482 10.5927L20.2065 3.90425V14.2769C20.2065 14.8212 19.7638 15.2639 19.2196 15.2639Z" fill="#1D1D1B"/>
</svg>
