<svg width="20" height="20" viewBox="0 0 20 20" fill="none" xmlns="http://www.w3.org/2000/svg">
<path d="M19.8284 0.172502C19.6626 0.00672084 19.414 -0.0442556 19.1965 0.0427755L0.36834 7.57393C0.152911 7.6601 0.00865304 7.86526 0.00037181 8.09717C-0.00787036 8.32905 0.121504 8.54393 0.330254 8.64518L7.75477 12.246L11.3556 19.6705C11.4538 19.873 11.6589 20.0008 11.8827 20.0008C11.8896 20.0008 11.8966 20.0007 11.9036 20.0004C12.1355 19.9922 12.3407 19.8479 12.4268 19.6325L19.9581 0.804454C20.0451 0.586798 19.9941 0.338244 19.8284 0.172502ZM2.0349 8.16948L16.9812 2.19101L8.07383 11.0983L2.0349 8.16948ZM11.8313 17.9659L8.90246 11.9269L17.8099 3.01961L11.8313 17.9659Z" fill="#212121"/>
</svg>
