<svg width="24" height="24" viewBox="0 0 24 24" fill="none" xmlns="http://www.w3.org/2000/svg">
<g clip-path="url(#clip0)">
<path d="M0.761715 3.41154C0.761715 2.75291 1.00753 2.11172 1.45399 1.62228C1.95304 1.07503 2.66427 0.76123 3.40475 0.76123L6.9532 0.76123C8.29985 0.76123 9.42869 1.7662 9.57879 3.09885C9.66723 3.88313 9.82873 4.66206 10.0588 5.41435C10.3467 6.35588 10.0968 7.37006 9.40631 8.06069L7.96861 9.49852C9.47511 12.2521 11.7713 14.5483 14.5243 16.0546L15.9621 14.6166C16.6528 13.9262 17.6669 13.6762 18.6086 13.9643C19.3609 14.1944 20.1398 14.3559 20.924 14.4443C22.2567 14.5943 23.2617 15.7231 23.2617 17.0698L23.2617 20.6181C23.2617 21.3587 22.9479 22.0699 22.4007 22.569C21.8513 23.0702 21.1107 23.3184 20.369 23.2501C17.8229 23.0158 15.3646 22.341 13.0621 21.2443C10.8237 20.1782 8.7967 18.7456 7.0371 16.986C5.27764 15.2265 3.84475 13.1994 2.7788 10.9609C1.68223 8.65834 1.00726 6.20001 0.772838 3.65393C0.765283 3.57304 0.761715 3.49229 0.761715 3.41154ZM8.41823 6.19672C8.41823 6.10773 8.4049 6.01723 8.37785 5.92865C8.1161 5.07309 7.93249 4.18732 7.83197 3.29564C7.78212 2.85303 7.40432 2.51904 6.9532 2.51904L3.40475 2.51904C3.15344 2.51904 2.9219 2.62135 2.75271 2.80702C2.58119 2.99475 2.49975 3.23837 2.52337 3.49271C3.40269 13.0471 10.976 20.6203 20.5302 21.4997C20.7846 21.5232 21.0282 21.4416 21.2161 21.2704C21.4016 21.1009 21.5039 20.8694 21.5039 20.6181L21.5039 17.0698C21.5039 16.6186 21.1701 16.2408 20.7273 16.1908C19.8356 16.0905 18.9499 15.9068 18.0943 15.6452C17.7757 15.5477 17.435 15.6297 17.2051 15.8596L14.864 18.2007L14.2981 17.9191C10.77 16.1638 7.85998 13.2534 6.10423 9.72456L5.82243 9.15863L8.16348 6.81772C8.32924 6.65196 8.41823 6.42839 8.41823 6.19672Z" fill="white"/>
</g>
<defs>
<clipPath id="clip0">
<rect width="24" height="24" fill="white" transform="translate(24) rotate(90)"/>
</clipPath>
</defs>
</svg>
