<svg width="48" height="48" viewBox="0 0 48 48" fill="none" xmlns="http://www.w3.org/2000/svg">
<path d="M8 34H6C4.89543 34 4 33.1046 4 32V16C4 14.8954 4.89543 14 6 14H28C29.1046 14 30 14.8954 30 16V32C30 33.1046 29.1046 34 28 34H16" stroke="#007878" stroke-width="2" stroke-linecap="square"/>
<path d="M40 34H42C43.1046 34 44 33.1046 44 32V25.6351C44 25.2916 43.9115 24.9539 43.7432 24.6546L40.5735 19.0195C40.2192 18.3897 39.5528 18 38.8303 18H32C30.8954 18 30 18.8954 30 20V32C30 33.1046 30.8954 34 32 34V34" stroke="#007878" stroke-width="2" stroke-linecap="square"/>
<path d="M12 38C14.2091 38 16 36.2091 16 34C16 31.7909 14.2091 30 12 30C9.79086 30 8 31.7909 8 34C8 36.2091 9.79086 38 12 38Z" stroke="#007878" stroke-width="2" stroke-linecap="square"/>
<path d="M36 38C38.2091 38 40 36.2091 40 34C40 31.7909 38.2091 30 36 30C33.7909 30 32 31.7909 32 34C32 36.2091 33.7909 38 36 38Z" stroke="#007878" stroke-width="2" stroke-linecap="square"/>
</svg>
