<svg width="24" height="24" viewBox="0 0 24 24" fill="none" xmlns="http://www.w3.org/2000/svg">
<path d="M19.6667 6.33337H5C3.89543 6.33337 3 7.2288 3 8.33337V20.3334C3 21.4379 3.89543 22.3334 5 22.3334H19.6667C20.7712 22.3334 21.6667 21.4379 21.6667 20.3334V8.33337C21.6667 7.2288 20.7712 6.33337 19.6667 6.33337Z" stroke="#3D4655" stroke-width="2" stroke-linecap="square"/>
<path d="M7 9V6.33333C7 4.91885 7.5619 3.56229 8.5621 2.5621C9.56229 1.5619 10.9188 1 12.3333 1C13.7478 1 15.1044 1.5619 16.1046 2.5621C17.1048 3.56229 17.6667 4.91885 17.6667 6.33333V9" stroke="#3D4655" stroke-width="2" stroke-linecap="round"/>
</svg>
