<svg width="24" height="20" viewBox="0 0 24 20" fill="none" xmlns="http://www.w3.org/2000/svg">
<path d="M22.0718 1.96971C19.4616 -0.639778 15.2154 -0.639778 12.6059 1.96971L11.9998 2.57546L11.394 1.96971C8.78456 -0.640131 4.53796 -0.640131 1.92847 1.96971C-0.628033 4.52621 -0.644634 8.57855 1.88997 11.3961C4.20171 13.9649 11.0196 19.5149 11.3089 19.7498C11.5053 19.9094 11.7416 19.9871 11.9765 19.9871C11.9843 19.9871 11.992 19.9871 11.9994 19.9868C12.2424 19.9981 12.4872 19.9147 12.69 19.7498C12.9792 19.5149 19.7979 13.9649 22.1103 11.3957C24.6446 8.57855 24.628 4.52621 22.0718 1.96971ZM20.535 9.9783C18.7326 11.9806 13.7782 16.1103 11.9994 17.5758C10.2207 16.1107 5.26733 11.9813 3.46527 9.97866C1.69712 8.01342 1.68052 5.21461 3.42677 3.46836C4.31862 2.57687 5.48985 2.13077 6.66108 2.13077C7.83231 2.13077 9.00355 2.57652 9.89539 3.46836L11.2277 4.80066C11.3863 4.95925 11.5862 5.0539 11.796 5.08711C12.1365 5.16022 12.5059 5.06521 12.7708 4.80101L14.1038 3.46836C15.8879 1.68502 18.7898 1.68538 20.5728 3.46836C22.3191 5.21461 22.3025 8.01342 20.535 9.9783Z" fill="#273142" fill-opacity="0.9"/>
</svg>
