<svg width="22" height="24" viewBox="0 0 22 24" fill="none" xmlns="http://www.w3.org/2000/svg">
<path d="M14.6186 11.1284C16.1543 10.0084 17.1544 8.19581 17.1544 6.15384C17.1544 2.76061 14.3937 0 11.0005 0C7.60727 0 4.84666 2.76061 4.84666 6.15384C4.84666 8.19581 5.84665 10.0084 7.38237 11.1284C3.56487 12.5892 0.84668 16.2905 0.84668 20.6154C0.84668 22.4817 2.36501 24 4.23129 24H17.7697C19.636 24 21.1543 22.4817 21.1543 20.6154C21.1543 16.2905 18.4361 12.5892 14.6186 11.1284ZM6.69284 6.15384C6.69284 3.77859 8.62526 1.84617 11.0005 1.84617C13.3758 1.84617 15.3082 3.77859 15.3082 6.15384C15.3082 8.52909 13.3758 10.4616 11.0005 10.4616C8.62526 10.4616 6.69284 8.52909 6.69284 6.15384ZM17.7697 22.1538H4.23129C3.38299 22.1538 2.69285 21.4637 2.69285 20.6153C2.69285 16.0344 6.4196 12.3076 11.0006 12.3076C15.5815 12.3076 19.3083 16.0344 19.3083 20.6153C19.3082 21.4637 18.6181 22.1538 17.7697 22.1538Z" fill="#273142" fill-opacity="0.9"/>
</svg>
