<svg width="206" height="18" viewBox="0 0 206 18" fill="none" xmlns="http://www.w3.org/2000/svg">
<path d="M6.53913 1.672C5.45113 1.672 4.48579 1.912 3.64313 2.392C2.81113 2.872 2.16046 3.544 1.69113 4.408C1.22179 5.26133 0.987125 6.23733 0.987125 7.336C0.987125 8.43467 1.22179 9.416 1.69113 10.28C2.16046 11.144 2.81113 11.816 3.64313 12.296C4.48579 12.776 5.45113 13.016 6.53913 13.016C7.62713 13.016 8.58713 12.776 9.41913 12.296C10.2618 11.816 10.9125 11.144 11.3711 10.28C11.8405 9.416 12.0751 8.43467 12.0751 7.336C12.0751 6.23733 11.8405 5.26133 11.3711 4.408C10.9125 3.544 10.2618 2.872 9.41913 2.392C8.58713 1.912 7.62713 1.672 6.53913 1.672ZM6.53913 2.216C7.53113 2.216 8.40046 2.43467 9.14713 2.872C9.89379 3.29867 10.4698 3.90133 10.8751 4.68C11.2805 5.45867 11.4831 6.344 11.4831 7.336C11.4831 8.328 11.2805 9.21333 10.8751 9.992C10.4698 10.76 9.89379 11.3627 9.14713 11.8C8.40046 12.2373 7.53113 12.456 6.53913 12.456C5.54713 12.456 4.67779 12.2373 3.93113 11.8C3.18446 11.3627 2.60846 10.76 2.20312 9.992C1.79779 9.21333 1.59513 8.328 1.59513 7.336C1.59513 6.344 1.79779 5.45867 2.20312 4.68C2.60846 3.90133 3.18446 3.29867 3.93113 2.872C4.67779 2.43467 5.54713 2.216 6.53913 2.216ZM6.60313 3.624C7.39246 3.624 8.09113 3.85867 8.69913 4.328C9.30713 4.78667 9.70713 5.42667 9.89913 6.248H8.63513C8.47513 5.74667 8.20313 5.35733 7.81913 5.08C7.44579 4.80267 7.01913 4.664 6.53913 4.664C5.90979 4.664 5.37646 4.89867 4.93913 5.368C4.50179 5.82667 4.28313 6.488 4.28313 7.352C4.28313 7.91733 4.38446 8.40267 4.58713 8.808C4.80046 9.21333 5.07779 9.51733 5.41913 9.72C5.76046 9.92267 6.13379 10.024 6.53913 10.024C7.01913 10.024 7.44579 9.88533 7.81913 9.608C8.20313 9.32 8.47513 8.92533 8.63513 8.424H9.89913C9.71779 9.24533 9.31779 9.89067 8.69913 10.36C8.09113 10.8187 7.39246 11.048 6.60313 11.048C5.95246 11.048 5.36046 10.904 4.82713 10.616C4.29379 10.328 3.87246 9.90667 3.56313 9.352C3.25379 8.78667 3.09913 8.11467 3.09913 7.336C3.09913 6.568 3.25379 5.90667 3.56313 5.352C3.87246 4.78667 4.29379 4.36 4.82713 4.072C5.36046 3.77333 5.95246 3.624 6.60313 3.624ZM17.5001 11.88C19.3135 10.664 20.7641 9.45867 21.8521 8.264C22.9401 7.05867 23.4841 5.93867 23.4841 4.904C23.4841 4.264 23.3188 3.752 22.9881 3.368C22.6681 2.97333 22.1455 2.776 21.4201 2.776C20.6735 2.776 20.1081 3.016 19.7241 3.496C19.3401 3.96533 19.1268 4.616 19.0841 5.448H17.6441C17.7188 4.18933 18.1081 3.224 18.8121 2.552C19.5161 1.86933 20.4228 1.528 21.5321 1.528C22.5881 1.528 23.4255 1.81067 24.0441 2.376C24.6628 2.94133 24.9721 3.74133 24.9721 4.776C24.9721 5.62933 24.6948 6.49867 24.1401 7.384C23.5961 8.25867 22.9081 9.07467 22.0761 9.832C21.2548 10.5787 20.4068 11.2133 19.5321 11.736H25.2601V12.936H17.5001V11.88ZM26.8183 7.288C26.8183 9.10133 27.1169 10.5147 27.7143 11.528C28.3116 12.5413 29.3463 13.048 30.8183 13.048C32.2903 13.048 33.3249 12.5413 33.9223 11.528C34.5303 10.5147 34.8343 9.10133 34.8343 7.288C34.8343 5.496 34.5303 4.09333 33.9223 3.08C33.3249 2.06667 32.2903 1.56 30.8183 1.56C29.3463 1.56 28.3116 2.06667 27.7143 3.08C27.1169 4.08267 26.8183 5.48533 26.8183 7.288ZM33.3943 7.288C33.3943 8.216 33.3249 8.99467 33.1863 9.624C33.0583 10.2427 32.8076 10.7387 32.4343 11.112C32.0609 11.4853 31.5223 11.672 30.8183 11.672C30.1249 11.672 29.5916 11.4853 29.2183 11.112C28.8449 10.7387 28.5889 10.2427 28.4503 9.624C28.3223 8.99467 28.2582 8.216 28.2582 7.288C28.2582 6.37067 28.3223 5.60267 28.4503 4.984C28.5889 4.36533 28.8449 3.87467 29.2183 3.512C29.5916 3.13867 30.1249 2.952 30.8183 2.952C31.5223 2.952 32.0609 3.13867 32.4343 3.512C32.8076 3.87467 33.0583 4.36533 33.1863 4.984C33.3249 5.60267 33.3943 6.37067 33.3943 7.288ZM36.4064 11.88C38.2197 10.664 39.6704 9.45867 40.7584 8.264C41.8464 7.05867 42.3904 5.93867 42.3904 4.904C42.3904 4.264 42.225 3.752 41.8944 3.368C41.5744 2.97333 41.0517 2.776 40.3264 2.776C39.5797 2.776 39.0144 3.016 38.6304 3.496C38.2464 3.96533 38.033 4.616 37.9904 5.448H36.5504C36.625 4.18933 37.0144 3.224 37.7184 2.552C38.4224 1.86933 39.329 1.528 40.4384 1.528C41.4944 1.528 42.3317 1.81067 42.9504 2.376C43.569 2.94133 43.8784 3.74133 43.8784 4.776C43.8784 5.62933 43.601 6.49867 43.0464 7.384C42.5024 8.25867 41.8144 9.07467 40.9824 9.832C40.161 10.5787 39.313 11.2133 38.4384 11.736H44.1664V12.936H36.4064V11.88ZM45.7245 7.288C45.7245 9.10133 46.0232 10.5147 46.6205 11.528C47.2178 12.5413 48.2525 13.048 49.7245 13.048C51.1965 13.048 52.2312 12.5413 52.8285 11.528C53.4365 10.5147 53.7405 9.10133 53.7405 7.288C53.7405 5.496 53.4365 4.09333 52.8285 3.08C52.2312 2.06667 51.1965 1.56 49.7245 1.56C48.2525 1.56 47.2178 2.06667 46.6205 3.08C46.0232 4.08267 45.7245 5.48533 45.7245 7.288ZM52.3005 7.288C52.3005 8.216 52.2312 8.99467 52.0925 9.624C51.9645 10.2427 51.7138 10.7387 51.3405 11.112C50.9672 11.4853 50.4285 11.672 49.7245 11.672C49.0312 11.672 48.4978 11.4853 48.1245 11.112C47.7512 10.7387 47.4952 10.2427 47.3565 9.624C47.2285 8.99467 47.1645 8.216 47.1645 7.288C47.1645 6.37067 47.2285 5.60267 47.3565 4.984C47.4952 4.36533 47.7512 3.87467 48.1245 3.512C48.4978 3.13867 49.0312 2.952 49.7245 2.952C50.4285 2.952 50.9672 3.13867 51.3405 3.512C51.7138 3.87467 51.9645 4.36533 52.0925 4.984C52.2312 5.60267 52.3005 6.37067 52.3005 7.288ZM56.8806 11.288V13H55.1206V11.288H56.8806ZM69.1041 10.392H64.1441L63.2001 13H61.6321L65.8081 1.928H67.4561L71.6161 13H70.0481L69.1041 10.392ZM68.6881 9.256L66.6241 3.56L64.5601 9.256H68.6881ZM74.5459 1.16V13H73.0899V1.16H74.5459ZM78.3428 1.16V13H76.8868V1.16H78.3428ZM86.0928 5.992C86.3808 5.384 86.8021 4.91467 87.3568 4.584C87.9114 4.24267 88.5728 4.072 89.3408 4.072V5.656H88.8928C88.0714 5.656 87.3994 5.86933 86.8768 6.296C86.3541 6.712 86.0928 7.40533 86.0928 8.376V13H84.6368V4.216H86.0928V5.992ZM90.5214 1.64C90.5214 1.37333 90.612 1.16 90.7934 0.999999C90.9747 0.829333 91.2147 0.743999 91.5134 0.743999C91.812 0.743999 92.052 0.829333 92.2334 0.999999C92.4147 1.16 92.5054 1.37333 92.5054 1.64C92.5054 1.90667 92.4147 2.12533 92.2334 2.296C92.052 2.456 91.812 2.536 91.5134 2.536C91.2147 2.536 90.9747 2.456 90.7934 2.296C90.612 2.12533 90.5214 1.90667 90.5214 1.64ZM92.2334 4.216V13H90.7774V4.216H92.2334ZM98.1743 4.104C99.0276 4.104 99.7476 4.31733 100.334 4.744C100.932 5.17067 101.348 5.74133 101.582 6.456V4.216H103.038V13.144C103.038 13.9547 102.868 14.6747 102.526 15.304C102.185 15.9333 101.705 16.424 101.086 16.776C100.468 17.128 99.7476 17.304 98.9263 17.304C97.7423 17.304 96.7769 17.016 96.0303 16.44C95.2836 15.8747 94.8089 15.1067 94.6063 14.136H96.0463C96.2169 14.7227 96.5369 15.1813 97.0063 15.512C97.4863 15.8533 98.0996 16.024 98.8463 16.024C99.6356 16.024 100.286 15.768 100.798 15.256C101.321 14.7547 101.582 14.0507 101.582 13.144V10.76C101.348 11.4747 100.932 12.0453 100.334 12.472C99.7476 12.8987 99.0276 13.112 98.1743 13.112C97.3956 13.112 96.7023 12.9307 96.0943 12.568C95.4863 12.2053 95.0063 11.688 94.6543 11.016C94.3129 10.3333 94.1423 9.53333 94.1423 8.616C94.1423 7.69867 94.3129 6.89867 94.6543 6.216C95.0063 5.53333 95.4863 5.01067 96.0943 4.648C96.7023 4.28533 97.3956 4.104 98.1743 4.104ZM98.5903 5.4C97.6943 5.4 96.9743 5.688 96.4303 6.264C95.8969 6.82933 95.6303 7.61333 95.6303 8.616C95.6303 9.61867 95.8969 10.408 96.4303 10.984C96.9743 11.5493 97.6943 11.832 98.5903 11.832C99.1663 11.832 99.6783 11.6987 100.126 11.432C100.585 11.1653 100.942 10.792 101.198 10.312C101.454 9.82133 101.582 9.256 101.582 8.616C101.582 7.976 101.454 7.41067 101.198 6.92C100.942 6.42933 100.585 6.056 100.126 5.8C99.6783 5.53333 99.1663 5.4 98.5903 5.4ZM109.98 4.072C111.004 4.072 111.83 4.40267 112.46 5.064C113.089 5.71467 113.404 6.65867 113.404 7.896V13H111.948V8.024C111.948 7.14933 111.724 6.47733 111.276 6.008C110.828 5.53867 110.22 5.304 109.452 5.304C108.652 5.304 108.012 5.56533 107.532 6.088C107.052 6.6 106.812 7.352 106.812 8.344V13H105.356V1.16H106.812V6.296C107.036 5.58133 107.43 5.032 107.996 4.648C108.572 4.264 109.233 4.072 109.98 4.072ZM119.829 11.72V13H118.741C117.845 13 117.173 12.7867 116.725 12.36C116.287 11.9333 116.069 11.2187 116.069 10.216V5.48H114.757V4.216H116.069V2.024H117.541V4.216H119.813V5.48H117.541V10.248C117.541 10.8133 117.642 11.2027 117.845 11.416C118.058 11.6187 118.421 11.72 118.933 11.72H119.829ZM124.358 4.104C125.35 4.104 126.144 4.36533 126.742 4.888C127.35 5.4 127.718 6.09333 127.846 6.968H126.454C126.39 6.44533 126.171 6.01867 125.798 5.688C125.435 5.34667 124.944 5.176 124.326 5.176C123.803 5.176 123.392 5.304 123.094 5.56C122.806 5.80533 122.662 6.14133 122.662 6.568C122.662 6.888 122.758 7.14933 122.95 7.352C123.152 7.544 123.398 7.69333 123.686 7.8C123.984 7.896 124.39 8.00267 124.902 8.12C125.552 8.26933 126.075 8.424 126.47 8.584C126.875 8.73333 127.216 8.97867 127.494 9.32C127.782 9.66133 127.926 10.12 127.926 10.696C127.926 11.4107 127.654 11.992 127.11 12.44C126.576 12.888 125.862 13.112 124.966 13.112C123.92 13.112 123.067 12.8613 122.406 12.36C121.744 11.8587 121.355 11.16 121.238 10.264H122.646C122.699 10.7973 122.928 11.2293 123.334 11.56C123.75 11.8907 124.294 12.056 124.966 12.056C125.467 12.056 125.856 11.928 126.134 11.672C126.422 11.416 126.566 11.08 126.566 10.664C126.566 10.3227 126.464 10.0507 126.262 9.848C126.059 9.64533 125.808 9.49067 125.51 9.384C125.211 9.27733 124.8 9.16533 124.278 9.048C123.627 8.89867 123.104 8.74933 122.71 8.6C122.326 8.45067 121.995 8.216 121.718 7.896C121.451 7.56533 121.318 7.12267 121.318 6.568C121.318 5.832 121.59 5.24 122.134 4.792C122.678 4.33333 123.419 4.104 124.358 4.104ZM135.28 5.992C135.568 5.384 135.99 4.91467 136.544 4.584C137.099 4.24267 137.76 4.072 138.528 4.072V5.656H138.08C137.259 5.656 136.587 5.86933 136.064 6.296C135.542 6.712 135.28 7.40533 135.28 8.376V13H133.824V4.216H135.28V5.992ZM148.045 8.12C148.045 8.42933 148.024 8.696 147.981 8.92H140.957C140.989 9.92267 141.272 10.6747 141.805 11.176C142.349 11.6773 143.01 11.928 143.789 11.928C144.493 11.928 145.08 11.752 145.549 11.4C146.029 11.0373 146.322 10.5573 146.429 9.96H147.981C147.874 10.568 147.634 11.112 147.261 11.592C146.898 12.072 146.424 12.4453 145.837 12.712C145.25 12.9787 144.589 13.112 143.853 13.112C143.01 13.112 142.264 12.9307 141.613 12.568C140.962 12.2053 140.45 11.688 140.077 11.016C139.714 10.3333 139.533 9.53333 139.533 8.616C139.533 7.69867 139.714 6.89867 140.077 6.216C140.45 5.53333 140.962 5.01067 141.613 4.648C142.264 4.28533 143.01 4.104 143.853 4.104C144.706 4.104 145.448 4.28533 146.077 4.648C146.717 5.01067 147.202 5.496 147.533 6.104C147.874 6.712 148.045 7.384 148.045 8.12ZM146.573 8.216C146.605 7.56533 146.498 7.02133 146.253 6.584C146.008 6.14667 145.672 5.82133 145.245 5.608C144.818 5.39467 144.354 5.288 143.853 5.288C143.053 5.288 142.381 5.53867 141.837 6.04C141.293 6.53067 141 7.256 140.957 8.216H146.573ZM152.701 4.104C153.693 4.104 154.488 4.36533 155.085 4.888C155.693 5.4 156.061 6.09333 156.189 6.968H154.797C154.733 6.44533 154.515 6.01867 154.141 5.688C153.779 5.34667 153.288 5.176 152.669 5.176C152.147 5.176 151.736 5.304 151.437 5.56C151.149 5.80533 151.005 6.14133 151.005 6.568C151.005 6.888 151.101 7.14933 151.293 7.352C151.496 7.544 151.741 7.69333 152.029 7.8C152.328 7.896 152.733 8.00267 153.245 8.12C153.896 8.26933 154.419 8.424 154.813 8.584C155.219 8.73333 155.56 8.97867 155.837 9.32C156.125 9.66133 156.269 10.12 156.269 10.696C156.269 11.4107 155.997 11.992 155.453 12.44C154.92 12.888 154.205 13.112 153.309 13.112C152.264 13.112 151.411 12.8613 150.749 12.36C150.088 11.8587 149.699 11.16 149.581 10.264H150.989C151.043 10.7973 151.272 11.2293 151.677 11.56C152.093 11.8907 152.637 12.056 153.309 12.056C153.811 12.056 154.2 11.928 154.477 11.672C154.765 11.416 154.909 11.08 154.909 10.664C154.909 10.3227 154.808 10.0507 154.605 9.848C154.403 9.64533 154.152 9.49067 153.853 9.384C153.555 9.27733 153.144 9.16533 152.621 9.048C151.971 8.89867 151.448 8.74933 151.053 8.6C150.669 8.45067 150.339 8.216 150.061 7.896C149.795 7.56533 149.661 7.12267 149.661 6.568C149.661 5.832 149.933 5.24 150.477 4.792C151.021 4.33333 151.763 4.104 152.701 4.104ZM166.295 8.12C166.295 8.42933 166.274 8.696 166.231 8.92H159.207C159.239 9.92267 159.522 10.6747 160.055 11.176C160.599 11.6773 161.26 11.928 162.039 11.928C162.743 11.928 163.33 11.752 163.799 11.4C164.279 11.0373 164.572 10.5573 164.679 9.96H166.231C166.124 10.568 165.884 11.112 165.511 11.592C165.148 12.072 164.674 12.4453 164.087 12.712C163.5 12.9787 162.839 13.112 162.103 13.112C161.26 13.112 160.514 12.9307 159.863 12.568C159.212 12.2053 158.7 11.688 158.327 11.016C157.964 10.3333 157.783 9.53333 157.783 8.616C157.783 7.69867 157.964 6.89867 158.327 6.216C158.7 5.53333 159.212 5.01067 159.863 4.648C160.514 4.28533 161.26 4.104 162.103 4.104C162.956 4.104 163.698 4.28533 164.327 4.648C164.967 5.01067 165.452 5.496 165.783 6.104C166.124 6.712 166.295 7.384 166.295 8.12ZM164.823 8.216C164.855 7.56533 164.748 7.02133 164.503 6.584C164.258 6.14667 163.922 5.82133 163.495 5.608C163.068 5.39467 162.604 5.288 162.103 5.288C161.303 5.288 160.631 5.53867 160.087 6.04C159.543 6.53067 159.25 7.256 159.207 8.216H164.823ZM169.655 5.992C169.943 5.384 170.365 4.91467 170.919 4.584C171.474 4.24267 172.135 4.072 172.903 4.072V5.656H172.455C171.634 5.656 170.962 5.86933 170.439 6.296C169.917 6.712 169.655 7.40533 169.655 8.376V13H168.199V4.216H169.655V5.992ZM177.748 11.448L180.468 4.216H182.036L178.596 13H176.868L173.428 4.216H174.996L177.748 11.448ZM191.545 8.12C191.545 8.42933 191.524 8.696 191.481 8.92H184.457C184.489 9.92267 184.772 10.6747 185.305 11.176C185.849 11.6773 186.51 11.928 187.289 11.928C187.993 11.928 188.58 11.752 189.049 11.4C189.529 11.0373 189.822 10.5573 189.929 9.96H191.481C191.374 10.568 191.134 11.112 190.761 11.592C190.398 12.072 189.924 12.4453 189.337 12.712C188.75 12.9787 188.089 13.112 187.353 13.112C186.51 13.112 185.764 12.9307 185.113 12.568C184.462 12.2053 183.95 11.688 183.577 11.016C183.214 10.3333 183.033 9.53333 183.033 8.616C183.033 7.69867 183.214 6.89867 183.577 6.216C183.95 5.53333 184.462 5.01067 185.113 4.648C185.764 4.28533 186.51 4.104 187.353 4.104C188.206 4.104 188.948 4.28533 189.577 4.648C190.217 5.01067 190.702 5.496 191.033 6.104C191.374 6.712 191.545 7.384 191.545 8.12ZM190.073 8.216C190.105 7.56533 189.998 7.02133 189.753 6.584C189.508 6.14667 189.172 5.82133 188.745 5.608C188.318 5.39467 187.854 5.288 187.353 5.288C186.553 5.288 185.881 5.53867 185.337 6.04C184.793 6.53067 184.5 7.256 184.457 8.216H190.073ZM197.049 4.104C197.903 4.104 198.623 4.31733 199.209 4.744C199.807 5.17067 200.223 5.74133 200.457 6.456V1.16H201.913V13H200.457V10.76C200.223 11.4747 199.807 12.0453 199.209 12.472C198.623 12.8987 197.903 13.112 197.049 13.112C196.271 13.112 195.577 12.9307 194.969 12.568C194.361 12.2053 193.881 11.688 193.529 11.016C193.188 10.3333 193.017 9.53333 193.017 8.616C193.017 7.69867 193.188 6.89867 193.529 6.216C193.881 5.53333 194.361 5.01067 194.969 4.648C195.577 4.28533 196.271 4.104 197.049 4.104ZM197.465 5.4C196.569 5.4 195.849 5.688 195.305 6.264C194.772 6.82933 194.505 7.61333 194.505 8.616C194.505 9.61867 194.772 10.408 195.305 10.984C195.849 11.5493 196.569 11.832 197.465 11.832C198.041 11.832 198.553 11.6987 199.001 11.432C199.46 11.1653 199.817 10.792 200.073 10.312C200.329 9.82133 200.457 9.256 200.457 8.616C200.457 7.976 200.329 7.41067 200.073 6.92C199.817 6.42933 199.46 6.056 199.001 5.8C198.553 5.53333 198.041 5.4 197.465 5.4ZM205.303 11.288V13H203.543V11.288H205.303Z" fill="#212121" fill-opacity="0.75"/>
</svg>
