<svg width="12" height="20" viewBox="0 0 12 20" fill="none" xmlns="http://www.w3.org/2000/svg">
<path d="M7.35064 20H4.14155C3.60553 20 3.1695 19.5639 3.1695 19.0279V11.7896H1.29725C0.761228 11.7896 0.325195 11.3535 0.325195 10.8176V7.71598C0.325195 7.17996 0.761228 6.74393 1.29725 6.74393H3.1695V5.19076C3.1695 3.65073 3.65308 2.34049 4.5678 1.40192C5.48664 0.459073 6.77074 -0.0391846 8.28126 -0.0391846L10.7287 -0.0352095C11.2638 -0.0342922 11.699 0.40174 11.699 0.936843V3.81661C11.699 4.35263 11.2632 4.78867 10.7273 4.78867L9.07948 4.78928C8.57694 4.78928 8.44897 4.89003 8.42161 4.92091C8.37651 4.97213 8.32284 5.11691 8.32284 5.51671V6.74378H10.6035C10.7751 6.74378 10.9415 6.78613 11.0844 6.86593C11.3928 7.03824 11.5845 7.36404 11.5845 7.71614L11.5833 10.8177C11.5833 11.3535 11.1473 11.7895 10.6112 11.7895H8.32284V19.0279C8.32284 19.5639 7.88666 20 7.35064 20ZM4.34428 18.8252H7.14791V11.2637C7.14791 10.9058 7.43916 10.6147 7.79691 10.6147H10.4085L10.4096 7.91871H7.79676C7.43901 7.91871 7.14791 7.62761 7.14791 7.26971V5.51671C7.14791 5.05775 7.19454 4.53579 7.54098 4.14348C7.95958 3.66923 8.61929 3.6145 9.07917 3.6145L10.5243 3.61389V1.13926L8.28034 1.1356C5.85281 1.1356 4.34428 2.68953 4.34428 5.19076V7.26971C4.34428 7.62746 4.05318 7.91871 3.69543 7.91871H1.49998V10.6147H3.69543C4.05318 10.6147 4.34428 10.9058 4.34428 11.2637V18.8252ZM10.7264 1.13957H10.7265H10.7264Z" fill="#212121"/>
</svg>
