<svg width="20" height="20" viewBox="0 0 20 20" fill="none" xmlns="http://www.w3.org/2000/svg">
<path d="M10.1968 20C10.1306 20 10.0644 20 9.99771 19.9997C8.43002 20.0035 6.98151 19.9637 5.57281 19.8779C4.28131 19.7993 3.10242 19.353 2.16339 18.5873C1.25732 17.8485 0.63858 16.8495 0.324402 15.6184C0.0509644 14.5466 0.0364685 13.4945 0.022583 12.4769C0.0125122 11.7468 0.00213623 10.8816 0 10.0018C0.00213623 9.1183 0.0125122 8.25313 0.022583 7.52299C0.0364685 6.50554 0.0509644 5.45344 0.324402 4.38151C0.63858 3.15043 1.25732 2.15144 2.16339 1.4126C3.10242 0.646917 4.28131 0.200597 5.57297 0.122014C6.98166 0.0364124 8.43048 -0.00356564 10.0015 0.000249067C11.5697 -0.00310787 13.0177 0.0364124 14.4264 0.122014C15.7179 0.200597 16.8968 0.646917 17.8358 1.4126C18.7421 2.15144 19.3607 3.15043 19.6748 4.38151C19.9483 5.45329 19.9628 6.50554 19.9767 7.52299C19.9867 8.25313 19.9973 9.1183 19.9992 9.99812V10.0018C19.9973 10.8816 19.9867 11.7468 19.9767 12.4769C19.9628 13.4944 19.9484 14.5465 19.6748 15.6184C19.3607 16.8495 18.7421 17.8485 17.8358 18.5873C16.8968 19.353 15.7179 19.7993 14.4264 19.8779C13.0774 19.96 11.6916 20 10.1968 20ZM9.99771 18.4372C11.5399 18.4408 12.9559 18.4019 14.3315 18.3183C15.3081 18.2589 16.1548 17.942 16.8484 17.3764C17.4896 16.8534 17.9312 16.132 18.1609 15.232C18.3885 14.3399 18.4016 13.3819 18.4143 12.4556C18.4242 11.7303 18.4346 10.8712 18.4367 9.99996C18.4346 9.12852 18.4242 8.26961 18.4143 7.54436C18.4016 6.61799 18.3885 5.66005 18.1609 4.76771C17.9312 3.86775 17.4896 3.14631 16.8484 2.62339C16.1548 2.0579 15.3081 1.74097 14.3315 1.68162C12.9559 1.59785 11.5399 1.55924 10.0014 1.5626C8.45947 1.55894 7.0433 1.59785 5.66772 1.68162C4.69116 1.74097 3.84445 2.0579 3.15079 2.62339C2.50961 3.14631 2.06802 3.86775 1.83838 4.76771C1.61072 5.66005 1.5976 6.61784 1.58493 7.54436C1.57501 8.27022 1.56464 9.12975 1.5625 10.0018C1.56464 10.87 1.57501 11.7297 1.58493 12.4556C1.5976 13.3819 1.61072 14.3399 1.83838 15.232C2.06802 16.132 2.50961 16.8534 3.15079 17.3764C3.84445 17.9419 4.69116 18.2588 5.66772 18.3181C7.0433 18.4019 8.45978 18.441 9.99771 18.4372ZM9.96048 14.8828C7.26822 14.8828 5.07767 12.6924 5.07767 9.99996C5.07767 7.30754 7.26822 5.11714 9.96048 5.11714C12.6529 5.11714 14.8433 7.30754 14.8433 9.99996C14.8433 12.6924 12.6529 14.8828 9.96048 14.8828ZM9.96048 6.67964C8.12973 6.67964 6.64017 8.1692 6.64017 9.99996C6.64017 11.8307 8.12973 13.3203 9.96048 13.3203C11.7914 13.3203 13.2808 11.8307 13.2808 9.99996C13.2808 8.1692 11.7914 6.67964 9.96048 6.67964ZM15.3902 3.55464C14.743 3.55464 14.2183 4.07923 14.2183 4.72651C14.2183 5.37379 14.743 5.89839 15.3902 5.89839C16.0374 5.89839 16.562 5.37379 16.562 4.72651C16.562 4.07923 16.0374 3.55464 15.3902 3.55464Z" fill="#212121"/>
</svg>
