<svg width="20" height="20" viewBox="0 0 20 20" fill="none" xmlns="http://www.w3.org/2000/svg">
<path d="M17.0282 2.90436C15.1494 1.03256 12.65 0.00106812 9.98993 0C7.33582 0 4.83246 1.03058 2.94128 2.90192C1.04675 4.77646 0.00244141 7.26761 0 9.90738V9.91043V9.91226C0.000305176 11.51 0.420074 13.1218 1.21689 14.593L0.0273132 20L5.49652 18.756C6.88171 19.454 8.42728 19.8221 9.98611 19.8227H9.99008C12.6437 19.8227 15.1471 18.792 17.0386 16.9205C18.9348 15.0444 19.9796 12.5565 19.9808 9.91501C19.9815 7.29218 18.9331 4.8024 17.0282 2.90436ZM9.98993 18.2617H9.98642C8.58673 18.2611 7.19986 17.9097 5.97595 17.2452L5.71732 17.1048L2.08054 17.932L2.87048 14.3419L2.7182 14.0793C1.96106 12.7736 1.56097 11.3322 1.56097 9.91058C1.56387 5.30899 5.3447 1.56097 9.98962 1.56097C12.2336 1.56189 14.342 2.43179 15.9265 4.01016C17.5349 5.61295 18.4204 7.70981 18.4196 9.91455C18.4178 14.5172 14.6362 18.2617 9.98993 18.2617Z" fill="#212121"/>
<path d="M7.27139 5.5415H6.83347C6.68103 5.5415 6.43353 5.59857 6.22418 5.82639C6.01468 6.05435 5.42432 6.60535 5.42432 7.72595C5.42432 8.84656 6.24326 9.92932 6.35739 10.0815C6.47168 10.2334 7.9382 12.6065 10.2609 13.5194C12.1913 14.2781 12.5842 14.1272 13.0031 14.0892C13.4221 14.0513 14.3551 13.5383 14.5456 13.0066C14.736 12.4748 14.736 12.0189 14.6789 11.9236C14.6217 11.8287 14.4693 11.7718 14.2408 11.658C14.0123 11.544 12.8923 10.9837 12.6828 10.9076C12.4733 10.8317 12.321 10.7937 12.1685 11.0219C12.0161 11.2495 11.5674 11.7762 11.434 11.9282C11.3008 12.0804 11.1674 12.0994 10.9388 11.9854C10.7103 11.8712 9.98181 11.6264 9.10886 10.8506C8.42938 10.2469 7.95789 9.4769 7.82452 9.24893C7.69131 9.02112 7.81033 8.89783 7.92493 8.78415C8.02762 8.68222 8.16632 8.54275 8.28061 8.40985C8.39474 8.27679 8.42725 8.18188 8.50354 8.02991C8.57968 7.87793 8.54153 7.74487 8.48447 7.63104C8.42725 7.51706 7.98871 6.39081 7.78546 5.94037H7.78561C7.61441 5.56104 7.4342 5.54822 7.27139 5.5415Z" fill="#212121"/>
</svg>
